<svg width="325" height="326" viewBox="0 0 325 326" fill="none" xmlns="http://www.w3.org/2000/svg">
<g clip-path="url(#clip0_161_5488)">
<mask id="mask0_161_5488" style="mask-type:luminance" maskUnits="userSpaceOnUse" x="35" y="32" width="225" height="261">
<path d="M259.694 32.8203H35.8828V292.704H259.694V32.8203Z" fill="white"/>
</mask>
<g mask="url(#mask0_161_5488)">
<path d="M193.217 177.835C184.693 177.835 177.624 184.02 176.168 192.129L143.163 210.217L106.572 188.906V142.959L143.163 119.933L187.655 146.285C192.801 149.352 199.454 147.637 202.469 142.491C205.535 137.345 203.82 130.692 198.674 127.678L148.517 97.9471C145.034 95.868 140.668 95.92 137.238 98.103L89.991 127.834C86.8204 129.809 84.9492 133.291 84.9492 136.982V195.143C84.9492 198.99 86.9763 202.576 90.3028 204.499L137.55 231.995C139.213 232.983 141.084 233.45 143.007 233.45C144.93 233.45 146.594 233.035 148.205 232.099L186.512 211.1C188.539 211.932 190.826 212.452 193.165 212.452C202.728 212.452 210.473 204.707 210.473 195.143C210.473 185.58 202.728 177.835 193.165 177.835H193.217Z" fill="url(#paint0_linear_161_5488)"/>
<path d="M242.386 209.333C233.862 209.333 226.793 215.518 225.338 223.627L141.707 269.47L57.4531 220.404V128.613L136.146 174.405C139.42 176.328 143.475 176.38 146.801 174.561L247.584 119.31C251.014 117.438 253.145 113.904 253.197 110.006C253.197 106.107 251.222 102.521 247.896 100.494L158.704 47.6856C157.508 39.2654 150.336 32.8203 141.603 32.8203C132.871 32.8203 124.295 40.5648 124.295 50.1286C124.295 59.6923 132.04 67.4368 141.603 67.4368C145.445 67.4368 145.814 67.021 147.685 66.2933L220.504 109.434L141.707 152.627L52.0995 100.494C48.773 98.5708 44.6149 98.5189 41.2884 100.494C37.9099 102.417 35.8828 106.004 35.8828 109.85V226.641C35.8828 230.488 37.9099 234.074 41.2364 235.997L136.146 291.249C137.809 292.236 139.68 292.704 141.603 292.704C143.527 292.704 145.19 292.288 146.801 291.352L235.733 242.598C237.76 243.43 240.047 243.95 242.386 243.95C251.95 243.95 259.694 236.205 259.694 226.641C259.694 217.078 251.95 209.333 242.386 209.333Z" fill="url(#paint1_linear_161_5488)"/>
</g>
</g>
<path d="M88.1133 323.376L324.574 193.992" stroke="#282828" stroke-width="0.5" stroke-dasharray="4 4"/>
<path d="M6.69141 250.319L292.786 95.2812" stroke="#282828" stroke-width="0.5" stroke-dasharray="4 4"/>
<path d="M299.065 245.779L17.8441 80.2215" stroke="#282828" stroke-width="0.5" stroke-dasharray="4 4"/>
<path d="M7.696 163.339C7.696 163.723 7.616 164.102 7.456 164.475C7.296 164.838 7.088 165.195 6.832 165.547C6.58667 165.888 6.304 166.224 5.984 166.555C5.664 166.875 5.344 167.19 5.024 167.499C4.85333 167.659 4.66133 167.851 4.448 168.075C4.23467 168.299 4.032 168.523 3.84 168.747C3.648 168.971 3.48267 169.19 3.344 169.403C3.20533 169.606 3.13067 169.776 3.12 169.915H8.048V171.547H0.992C0.981333 171.462 0.976 171.36 0.976 171.243C0.976 171.115 0.976 171.019 0.976 170.955C0.976 170.443 1.056 169.974 1.216 169.547C1.38667 169.11 1.60533 168.704 1.872 168.331C2.13867 167.958 2.43733 167.606 2.768 167.275C3.09867 166.944 3.42933 166.619 3.76 166.299C4.016 166.054 4.26133 165.814 4.496 165.579C4.73067 165.344 4.93333 165.115 5.104 164.891C5.28533 164.656 5.42933 164.422 5.536 164.187C5.64267 163.942 5.696 163.691 5.696 163.435C5.696 162.88 5.536 162.486 5.216 162.251C4.896 162.016 4.50667 161.899 4.048 161.899C3.74933 161.899 3.472 161.942 3.216 162.027C2.96 162.112 2.73067 162.214 2.528 162.331C2.336 162.448 2.16533 162.571 2.016 162.699C1.86667 162.816 1.75467 162.912 1.68 162.987L0.72 161.627C1.168 161.2 1.69067 160.859 2.288 160.603C2.896 160.336 3.54667 160.203 4.24 160.203C5.424 160.203 6.29333 160.486 6.848 161.051C7.41333 161.606 7.696 162.368 7.696 163.339ZM13.3338 165.915L15.1098 163.179H17.1418L14.3898 167.131C14.9658 167.878 15.5151 168.635 16.0378 169.403C16.5711 170.16 17.0084 170.875 17.3498 171.547H15.2538C15.1578 171.344 15.0298 171.115 14.8698 170.859C14.7204 170.592 14.5551 170.32 14.3738 170.043C14.2031 169.755 14.0218 169.472 13.8298 169.195C13.6378 168.918 13.4511 168.656 13.2698 168.411C12.8964 168.891 12.5284 169.424 12.1658 170.011C11.8138 170.587 11.5204 171.099 11.2858 171.547H9.30175C9.46175 171.227 9.65375 170.886 9.87775 170.523C10.1018 170.16 10.3418 169.792 10.5978 169.419C10.8538 169.035 11.1151 168.656 11.3818 168.283C11.6591 167.899 11.9311 167.536 12.1978 167.195L9.42975 163.179H11.5578L13.3338 165.915Z" fill="#282828"/>
<path d="M22 105.547L20.5566 108.047H23.4434L22 105.547ZM22 225.547L23.4434 223.047H20.5566L22 225.547ZM21.75 107.047C21.75 107.185 21.8619 107.297 22 107.297C22.1381 107.297 22.25 107.185 22.25 107.047H21.75ZM22.25 110.047C22.25 109.909 22.1381 109.797 22 109.797C21.8619 109.797 21.75 109.909 21.75 110.047H22.25ZM21.75 113.047C21.75 113.185 21.8619 113.297 22 113.297C22.1381 113.297 22.25 113.185 22.25 113.047H21.75ZM22.25 116.047C22.25 115.909 22.1381 115.797 22 115.797C21.8619 115.797 21.75 115.909 21.75 116.047H22.25ZM21.75 119.047C21.75 119.185 21.8619 119.297 22 119.297C22.1381 119.297 22.25 119.185 22.25 119.047H21.75ZM22.25 122.047C22.25 121.909 22.1381 121.797 22 121.797C21.8619 121.797 21.75 121.909 21.75 122.047H22.25ZM21.75 125.047C21.75 125.185 21.8619 125.297 22 125.297C22.1381 125.297 22.25 125.185 22.25 125.047H21.75ZM22.25 128.047C22.25 127.909 22.1381 127.797 22 127.797C21.8619 127.797 21.75 127.909 21.75 128.047H22.25ZM21.75 131.047C21.75 131.185 21.8619 131.297 22 131.297C22.1381 131.297 22.25 131.185 22.25 131.047H21.75ZM22.25 134.047C22.25 133.909 22.1381 133.797 22 133.797C21.8619 133.797 21.75 133.909 21.75 134.047H22.25ZM21.75 137.047C21.75 137.185 21.8619 137.297 22 137.297C22.1381 137.297 22.25 137.185 22.25 137.047H21.75ZM22.25 140.047C22.25 139.909 22.1381 139.797 22 139.797C21.8619 139.797 21.75 139.909 21.75 140.047H22.25ZM21.75 143.047C21.75 143.185 21.8619 143.297 22 143.297C22.1381 143.297 22.25 143.185 22.25 143.047H21.75ZM22.25 146.047C22.25 145.909 22.1381 145.797 22 145.797C21.8619 145.797 21.75 145.909 21.75 146.047H22.25ZM21.75 149.047C21.75 149.185 21.8619 149.297 22 149.297C22.1381 149.297 22.25 149.185 22.25 149.047H21.75ZM22.25 152.047C22.25 151.909 22.1381 151.797 22 151.797C21.8619 151.797 21.75 151.909 21.75 152.047H22.25ZM21.75 155.047C21.75 155.185 21.8619 155.297 22 155.297C22.1381 155.297 22.25 155.185 22.25 155.047H21.75ZM22.25 158.047C22.25 157.909 22.1381 157.797 22 157.797C21.8619 157.797 21.75 157.909 21.75 158.047H22.25ZM21.75 161.047C21.75 161.185 21.8619 161.297 22 161.297C22.1381 161.297 22.25 161.185 22.25 161.047H21.75ZM22.25 164.047C22.25 163.909 22.1381 163.797 22 163.797C21.8619 163.797 21.75 163.909 21.75 164.047H22.25ZM21.75 167.047C21.75 167.185 21.8619 167.297 22 167.297C22.1381 167.297 22.25 167.185 22.25 167.047H21.75ZM22.25 170.047C22.25 169.909 22.1381 169.797 22 169.797C21.8619 169.797 21.75 169.909 21.75 170.047H22.25ZM21.75 173.047C21.75 173.185 21.8619 173.297 22 173.297C22.1381 173.297 22.25 173.185 22.25 173.047H21.75ZM22.25 176.047C22.25 175.909 22.1381 175.797 22 175.797C21.8619 175.797 21.75 175.909 21.75 176.047H22.25ZM21.75 179.047C21.75 179.185 21.8619 179.297 22 179.297C22.1381 179.297 22.25 179.185 22.25 179.047H21.75ZM22.25 182.047C22.25 181.909 22.1381 181.797 22 181.797C21.8619 181.797 21.75 181.909 21.75 182.047H22.25ZM21.75 185.047C21.75 185.185 21.8619 185.297 22 185.297C22.1381 185.297 22.25 185.185 22.25 185.047H21.75ZM22.25 188.047C22.25 187.909 22.1381 187.797 22 187.797C21.8619 187.797 21.75 187.909 21.75 188.047H22.25ZM21.75 191.047C21.75 191.185 21.8619 191.297 22 191.297C22.1381 191.297 22.25 191.185 22.25 191.047H21.75ZM22.25 194.047C22.25 193.909 22.1381 193.797 22 193.797C21.8619 193.797 21.75 193.909 21.75 194.047H22.25ZM21.75 197.047C21.75 197.185 21.8619 197.297 22 197.297C22.1381 197.297 22.25 197.185 22.25 197.047H21.75ZM22.25 200.047C22.25 199.909 22.1381 199.797 22 199.797C21.8619 199.797 21.75 199.909 21.75 200.047H22.25ZM21.75 203.047C21.75 203.185 21.8619 203.297 22 203.297C22.1381 203.297 22.25 203.185 22.25 203.047H21.75ZM22.25 206.047C22.25 205.909 22.1381 205.797 22 205.797C21.8619 205.797 21.75 205.909 21.75 206.047H22.25ZM21.75 209.047C21.75 209.185 21.8619 209.297 22 209.297C22.1381 209.297 22.25 209.185 22.25 209.047H21.75ZM22.25 212.047C22.25 211.909 22.1381 211.797 22 211.797C21.8619 211.797 21.75 211.909 21.75 212.047H22.25ZM21.75 215.047C21.75 215.185 21.8619 215.297 22 215.297C22.1381 215.297 22.25 215.185 22.25 215.047H21.75ZM22.25 218.047C22.25 217.909 22.1381 217.797 22 217.797C21.8619 217.797 21.75 217.909 21.75 218.047H22.25ZM21.75 221.047C21.75 221.185 21.8619 221.297 22 221.297C22.1381 221.297 22.25 221.185 22.25 221.047H21.75ZM22.25 224.047C22.25 223.909 22.1381 223.797 22 223.797C21.8619 223.797 21.75 223.909 21.75 224.047H22.25ZM21.75 110.047V113.047H22.25V110.047H21.75ZM21.75 116.047V119.047H22.25V116.047H21.75ZM21.75 122.047V125.047H22.25V122.047H21.75ZM21.75 128.047V131.047H22.25V128.047H21.75ZM21.75 134.047V137.047H22.25V134.047H21.75ZM21.75 140.047V143.047H22.25V140.047H21.75ZM21.75 146.047V149.047H22.25V146.047H21.75ZM21.75 152.047V155.047H22.25V152.047H21.75ZM21.75 158.047V161.047H22.25V158.047H21.75ZM21.75 164.047V167.047H22.25V164.047H21.75ZM21.75 170.047V173.047H22.25V170.047H21.75ZM21.75 176.047V179.047H22.25V176.047H21.75ZM21.75 182.047V185.047H22.25V182.047H21.75ZM21.75 188.047V191.047H22.25V188.047H21.75ZM21.75 194.047V197.047H22.25V194.047H21.75ZM21.75 200.047V203.047H22.25V200.047H21.75ZM21.75 206.047V209.047H22.25V206.047H21.75ZM21.75 212.047V215.047H22.25V212.047H21.75ZM21.75 218.047V221.047H22.25V218.047H21.75Z" fill="#282828"/>
<path d="M70.0486 168.149L71.8246 165.413H73.8566L71.1046 169.365C71.6806 170.112 72.2299 170.869 72.7526 171.637C73.2859 172.395 73.7233 173.109 74.0646 173.781H71.9686C71.8726 173.579 71.7446 173.349 71.5846 173.093C71.4353 172.827 71.2699 172.555 71.0886 172.277C70.9179 171.989 70.7366 171.707 70.5446 171.429C70.3526 171.152 70.1659 170.891 69.9846 170.645C69.6113 171.125 69.2433 171.659 68.8806 172.245C68.5286 172.821 68.2353 173.333 68.0006 173.781H66.0166C66.1766 173.461 66.3686 173.12 66.5926 172.757C66.8166 172.395 67.0566 172.027 67.3126 171.653C67.5686 171.269 67.8299 170.891 68.0966 170.517C68.3739 170.133 68.6459 169.771 68.9126 169.429L66.1446 165.413H68.2726L70.0486 168.149Z" fill="#282828"/>
<path d="M78.8086 137.781L77.3652 140.281H80.252L78.8086 137.781ZM78.8086 197.781L80.252 195.281H77.3652L78.8086 197.781ZM78.5586 139.281C78.5586 139.419 78.6705 139.531 78.8086 139.531C78.9467 139.531 79.0586 139.419 79.0586 139.281H78.5586ZM79.0586 142.281C79.0586 142.143 78.9467 142.031 78.8086 142.031C78.6705 142.031 78.5586 142.143 78.5586 142.281H79.0586ZM78.5586 145.281C78.5586 145.419 78.6705 145.531 78.8086 145.531C78.9467 145.531 79.0586 145.419 79.0586 145.281H78.5586ZM79.0586 148.281C79.0586 148.143 78.9467 148.031 78.8086 148.031C78.6705 148.031 78.5586 148.143 78.5586 148.281H79.0586ZM78.5586 151.281C78.5586 151.419 78.6705 151.531 78.8086 151.531C78.9467 151.531 79.0586 151.419 79.0586 151.281H78.5586ZM79.0586 154.281C79.0586 154.143 78.9467 154.031 78.8086 154.031C78.6705 154.031 78.5586 154.143 78.5586 154.281H79.0586ZM78.5586 157.281C78.5586 157.419 78.6705 157.531 78.8086 157.531C78.9467 157.531 79.0586 157.419 79.0586 157.281H78.5586ZM79.0586 160.281C79.0586 160.143 78.9467 160.031 78.8086 160.031C78.6705 160.031 78.5586 160.143 78.5586 160.281H79.0586ZM78.5586 163.281C78.5586 163.419 78.6705 163.531 78.8086 163.531C78.9467 163.531 79.0586 163.419 79.0586 163.281H78.5586ZM79.0586 166.281C79.0586 166.143 78.9467 166.031 78.8086 166.031C78.6705 166.031 78.5586 166.143 78.5586 166.281H79.0586ZM78.5586 169.281C78.5586 169.419 78.6705 169.531 78.8086 169.531C78.9467 169.531 79.0586 169.419 79.0586 169.281H78.5586ZM79.0586 172.281C79.0586 172.143 78.9467 172.031 78.8086 172.031C78.6705 172.031 78.5586 172.143 78.5586 172.281H79.0586ZM78.5586 175.281C78.5586 175.419 78.6705 175.531 78.8086 175.531C78.9467 175.531 79.0586 175.419 79.0586 175.281H78.5586ZM79.0586 178.281C79.0586 178.143 78.9467 178.031 78.8086 178.031C78.6705 178.031 78.5586 178.143 78.5586 178.281H79.0586ZM78.5586 181.281C78.5586 181.419 78.6705 181.531 78.8086 181.531C78.9467 181.531 79.0586 181.419 79.0586 181.281H78.5586ZM79.0586 184.281C79.0586 184.143 78.9467 184.031 78.8086 184.031C78.6705 184.031 78.5586 184.143 78.5586 184.281H79.0586ZM78.5586 187.281C78.5586 187.419 78.6705 187.531 78.8086 187.531C78.9467 187.531 79.0586 187.419 79.0586 187.281H78.5586ZM79.0586 190.281C79.0586 190.143 78.9467 190.031 78.8086 190.031C78.6705 190.031 78.5586 190.143 78.5586 190.281H79.0586ZM78.5586 193.281C78.5586 193.419 78.6705 193.531 78.8086 193.531C78.9467 193.531 79.0586 193.419 79.0586 193.281H78.5586ZM79.0586 196.281C79.0586 196.143 78.9467 196.031 78.8086 196.031C78.6705 196.031 78.5586 196.143 78.5586 196.281H79.0586ZM78.5586 142.281V145.281H79.0586V142.281H78.5586ZM78.5586 148.281V151.281H79.0586V148.281H78.5586ZM78.5586 154.281V157.281H79.0586V154.281H78.5586ZM78.5586 160.281V163.281H79.0586V160.281H78.5586ZM78.5586 166.281V169.281H79.0586V166.281H78.5586ZM78.5586 172.281V175.281H79.0586V172.281H78.5586ZM78.5586 178.281V181.281H79.0586V178.281H78.5586ZM78.5586 184.281V187.281H79.0586V184.281H78.5586ZM78.5586 190.281V193.281H79.0586V190.281H78.5586Z" fill="#282828"/>
<path d="M92.5781 8.53125L319 142.377" stroke="#282828" stroke-width="0.5" stroke-linecap="round" stroke-dasharray="3 3"/>
<defs>
<linearGradient id="paint0_linear_161_5488" x1="183.133" y1="115.515" x2="104.025" y2="230.696" gradientUnits="userSpaceOnUse">
<stop stop-color="#00B6B7"/>
<stop offset="0.3" stop-color="#02B3B9"/>
<stop offset="0.5" stop-color="#0AAAC0"/>
<stop offset="0.7" stop-color="#189CCC"/>
<stop offset="0.8" stop-color="#2B87DD"/>
<stop offset="0.9" stop-color="#446DF2"/>
<stop offset="1" stop-color="#525FFF"/>
</linearGradient>
<linearGradient id="paint1_linear_161_5488" x1="33.284" y1="46.958" x2="232.355" y2="263.909" gradientUnits="userSpaceOnUse">
<stop stop-color="#00B6B7"/>
<stop offset="0.3" stop-color="#04B1BA"/>
<stop offset="0.5" stop-color="#0FA5C5"/>
<stop offset="0.7" stop-color="#238FD6"/>
<stop offset="0.9" stop-color="#3F72EE"/>
<stop offset="1" stop-color="#525FFF"/>
</linearGradient>
<clipPath id="clip0_161_5488">
<rect width="259.884" height="259.884" fill="white" transform="translate(17.8477 32.8203)"/>
</clipPath>
</defs>
</svg>
